<mxfile host="app.diagrams.net" agent="Mozilla/5.0 (X11; Linux x86_64) AppleWebKit/537.36 (KHTML, like Gecko) Chrome/136.0.0.0 Safari/537.36" version="26.2.5">
  <diagram name="Page-1" id="GxcJLQxmQlNdvxZ07zA7">
    <mxGraphModel dx="2133" dy="571" grid="1" gridSize="10" guides="1" tooltips="1" connect="1" arrows="1" fold="1" page="1" pageScale="1" pageWidth="850" pageHeight="1100" math="0" shadow="0">
      <root>
        <mxCell id="0" />
        <mxCell id="1" parent="0" />
        <mxCell id="ra9y6oQOf7fL091lrW0G-1" value="Teams" style="swimlane;childLayout=stackLayout;horizontal=1;startSize=50;horizontalStack=0;rounded=1;fontSize=14;fontStyle=0;strokeWidth=2;resizeParent=0;resizeLast=1;shadow=0;dashed=0;align=center;arcSize=4;whiteSpace=wrap;html=1;" vertex="1" parent="1">
          <mxGeometry x="120" y="100" width="160" height="210" as="geometry" />
        </mxCell>
        <mxCell id="ra9y6oQOf7fL091lrW0G-2" value="nick&lt;div&gt;name&lt;/div&gt;&lt;div&gt;description&lt;/div&gt;&lt;div&gt;number&lt;/div&gt;&lt;div&gt;logo&lt;/div&gt;&lt;div&gt;banner&lt;/div&gt;&lt;div&gt;owner: User&lt;/div&gt;&lt;div&gt;members: []User&lt;/div&gt;&lt;div&gt;created&lt;/div&gt;&lt;div&gt;updated&lt;/div&gt;" style="align=left;strokeColor=none;fillColor=none;spacingLeft=4;spacingRight=4;fontSize=12;verticalAlign=top;resizable=0;rotatable=0;part=1;html=1;whiteSpace=wrap;" vertex="1" parent="ra9y6oQOf7fL091lrW0G-1">
          <mxGeometry y="50" width="160" height="160" as="geometry" />
        </mxCell>
        <mxCell id="ra9y6oQOf7fL091lrW0G-3" value="Users" style="swimlane;childLayout=stackLayout;horizontal=1;startSize=50;horizontalStack=0;rounded=1;fontSize=14;fontStyle=0;strokeWidth=2;resizeParent=0;resizeLast=1;shadow=0;dashed=0;align=center;arcSize=4;whiteSpace=wrap;html=1;" vertex="1" parent="1">
          <mxGeometry x="-160" y="100" width="160" height="260" as="geometry" />
        </mxCell>
        <mxCell id="ra9y6oQOf7fL091lrW0G-4" value="auth-collection&lt;div&gt;completed&lt;/div&gt;&lt;div&gt;nick&lt;/div&gt;&lt;div&gt;lastName&lt;/div&gt;&lt;div&gt;name&lt;/div&gt;&lt;div&gt;avatar&lt;/div&gt;&lt;div&gt;roles: user, admin&lt;/div&gt;&lt;div&gt;fiscalCode&lt;/div&gt;&lt;div&gt;phone&lt;/div&gt;&lt;div&gt;gender&lt;/div&gt;&lt;div&gt;birthDate&lt;/div&gt;&lt;div&gt;bio&lt;/div&gt;&lt;div&gt;created&lt;/div&gt;&lt;div&gt;updated&lt;/div&gt;" style="align=left;strokeColor=none;fillColor=none;spacingLeft=4;spacingRight=4;fontSize=12;verticalAlign=top;resizable=0;rotatable=0;part=1;html=1;whiteSpace=wrap;" vertex="1" parent="ra9y6oQOf7fL091lrW0G-3">
          <mxGeometry y="50" width="160" height="210" as="geometry" />
        </mxCell>
        <mxCell id="ra9y6oQOf7fL091lrW0G-5" value="TeamPartecipations" style="swimlane;childLayout=stackLayout;horizontal=1;startSize=50;horizontalStack=0;rounded=1;fontSize=14;fontStyle=0;strokeWidth=2;resizeParent=0;resizeLast=1;shadow=0;dashed=0;align=center;arcSize=4;whiteSpace=wrap;html=1;" vertex="1" parent="1">
          <mxGeometry x="-160" y="480" width="190" height="120" as="geometry" />
        </mxCell>
        <mxCell id="ra9y6oQOf7fL091lrW0G-6" value="team: Teams&lt;div&gt;stage: Stages&lt;/div&gt;&lt;div&gt;event: Events&lt;/div&gt;&lt;div&gt;championship: Campionships&lt;/div&gt;&lt;div&gt;&lt;br&gt;&lt;/div&gt;" style="align=left;strokeColor=none;fillColor=none;spacingLeft=4;spacingRight=4;fontSize=12;verticalAlign=top;resizable=0;rotatable=0;part=1;html=1;whiteSpace=wrap;" vertex="1" parent="ra9y6oQOf7fL091lrW0G-5">
          <mxGeometry y="50" width="190" height="70" as="geometry" />
        </mxCell>
        <mxCell id="ra9y6oQOf7fL091lrW0G-7" value="TeamInvitations" style="swimlane;childLayout=stackLayout;horizontal=1;startSize=50;horizontalStack=0;rounded=1;fontSize=14;fontStyle=0;strokeWidth=2;resizeParent=0;resizeLast=1;shadow=0;dashed=0;align=center;arcSize=4;whiteSpace=wrap;html=1;" vertex="1" parent="1">
          <mxGeometry x="120" y="400" width="160" height="160" as="geometry" />
        </mxCell>
        <mxCell id="ra9y6oQOf7fL091lrW0G-8" value="team: Teams&lt;div&gt;uses&lt;/div&gt;&lt;div&gt;expiration&lt;/div&gt;&lt;div&gt;joined: []Users&lt;/div&gt;&lt;div&gt;disabled&lt;/div&gt;&lt;div&gt;created&lt;/div&gt;&lt;div&gt;updated&lt;/div&gt;" style="align=left;strokeColor=none;fillColor=none;spacingLeft=4;spacingRight=4;fontSize=12;verticalAlign=top;resizable=0;rotatable=0;part=1;html=1;whiteSpace=wrap;" vertex="1" parent="ra9y6oQOf7fL091lrW0G-7">
          <mxGeometry y="50" width="160" height="110" as="geometry" />
        </mxCell>
        <mxCell id="ra9y6oQOf7fL091lrW0G-9" value="Events" style="swimlane;childLayout=stackLayout;horizontal=1;startSize=50;horizontalStack=0;rounded=1;fontSize=14;fontStyle=0;strokeWidth=2;resizeParent=0;resizeLast=1;shadow=0;dashed=0;align=center;arcSize=4;whiteSpace=wrap;html=1;" vertex="1" parent="1">
          <mxGeometry x="50" y="690" width="160" height="120" as="geometry" />
        </mxCell>
        <mxCell id="ra9y6oQOf7fL091lrW0G-10" value="+Attribute1&#xa;+Attribute2&#xa;+Attribute3" style="align=left;strokeColor=none;fillColor=none;spacingLeft=4;spacingRight=4;fontSize=12;verticalAlign=top;resizable=0;rotatable=0;part=1;html=1;whiteSpace=wrap;" vertex="1" parent="ra9y6oQOf7fL091lrW0G-9">
          <mxGeometry y="50" width="160" height="70" as="geometry" />
        </mxCell>
        <mxCell id="ra9y6oQOf7fL091lrW0G-11" value="Stages" style="swimlane;childLayout=stackLayout;horizontal=1;startSize=50;horizontalStack=0;rounded=1;fontSize=14;fontStyle=0;strokeWidth=2;resizeParent=0;resizeLast=1;shadow=0;dashed=0;align=center;arcSize=4;whiteSpace=wrap;html=1;" vertex="1" parent="1">
          <mxGeometry x="250" y="690" width="160" height="120" as="geometry" />
        </mxCell>
        <mxCell id="ra9y6oQOf7fL091lrW0G-12" value="+Attribute1&#xa;+Attribute2&#xa;+Attribute3" style="align=left;strokeColor=none;fillColor=none;spacingLeft=4;spacingRight=4;fontSize=12;verticalAlign=top;resizable=0;rotatable=0;part=1;html=1;whiteSpace=wrap;" vertex="1" parent="ra9y6oQOf7fL091lrW0G-11">
          <mxGeometry y="50" width="160" height="70" as="geometry" />
        </mxCell>
        <mxCell id="ra9y6oQOf7fL091lrW0G-13" value="Championships" style="swimlane;childLayout=stackLayout;horizontal=1;startSize=50;horizontalStack=0;rounded=1;fontSize=14;fontStyle=0;strokeWidth=2;resizeParent=0;resizeLast=1;shadow=0;dashed=0;align=center;arcSize=4;whiteSpace=wrap;html=1;" vertex="1" parent="1">
          <mxGeometry x="-150" y="690" width="160" height="120" as="geometry" />
        </mxCell>
        <mxCell id="ra9y6oQOf7fL091lrW0G-14" value="+Attribute1&#xa;+Attribute2&#xa;+Attribute3" style="align=left;strokeColor=none;fillColor=none;spacingLeft=4;spacingRight=4;fontSize=12;verticalAlign=top;resizable=0;rotatable=0;part=1;html=1;whiteSpace=wrap;" vertex="1" parent="ra9y6oQOf7fL091lrW0G-13">
          <mxGeometry y="50" width="160" height="70" as="geometry" />
        </mxCell>
        <mxCell id="ra9y6oQOf7fL091lrW0G-15" value="ChampionshipLeaderboardView" style="ellipse;shape=cloud;whiteSpace=wrap;html=1;align=center;" vertex="1" parent="1">
          <mxGeometry x="-285" y="950" width="270" height="100" as="geometry" />
        </mxCell>
        <mxCell id="ra9y6oQOf7fL091lrW0G-18" value="Exceptions" style="swimlane;childLayout=stackLayout;horizontal=1;startSize=50;horizontalStack=0;rounded=1;fontSize=14;fontStyle=0;strokeWidth=2;resizeParent=0;resizeLast=1;shadow=0;dashed=0;align=center;arcSize=4;whiteSpace=wrap;html=1;" vertex="1" parent="1">
          <mxGeometry x="462.5" y="840" width="160" height="120" as="geometry" />
        </mxCell>
        <mxCell id="ra9y6oQOf7fL091lrW0G-19" value="+Attribute1&#xa;+Attribute2&#xa;+Attribute3" style="align=left;strokeColor=none;fillColor=none;spacingLeft=4;spacingRight=4;fontSize=12;verticalAlign=top;resizable=0;rotatable=0;part=1;html=1;whiteSpace=wrap;" vertex="1" parent="ra9y6oQOf7fL091lrW0G-18">
          <mxGeometry y="50" width="160" height="70" as="geometry" />
        </mxCell>
        <mxCell id="ra9y6oQOf7fL091lrW0G-20" value="Penalties" style="swimlane;childLayout=stackLayout;horizontal=1;startSize=50;horizontalStack=0;rounded=1;fontSize=14;fontStyle=0;strokeWidth=2;resizeParent=0;resizeLast=1;shadow=0;dashed=0;align=center;arcSize=4;whiteSpace=wrap;html=1;" vertex="1" parent="1">
          <mxGeometry x="425" y="420" width="235" height="120" as="geometry" />
        </mxCell>
        <mxCell id="ra9y6oQOf7fL091lrW0G-21" value="reason&lt;div&gt;dispatched&lt;/div&gt;&lt;div&gt;value&lt;/div&gt;&lt;div&gt;valueType: Seconds | Position | Points&lt;/div&gt;" style="align=left;strokeColor=none;fillColor=none;spacingLeft=4;spacingRight=4;fontSize=12;verticalAlign=top;resizable=0;rotatable=0;part=1;html=1;whiteSpace=wrap;" vertex="1" parent="ra9y6oQOf7fL091lrW0G-20">
          <mxGeometry y="50" width="235" height="70" as="geometry" />
        </mxCell>
        <mxCell id="ra9y6oQOf7fL091lrW0G-22" value="Results" style="swimlane;childLayout=stackLayout;horizontal=1;startSize=50;horizontalStack=0;rounded=1;fontSize=14;fontStyle=0;strokeWidth=2;resizeParent=0;resizeLast=1;shadow=0;dashed=0;align=center;arcSize=4;whiteSpace=wrap;html=1;" vertex="1" parent="1">
          <mxGeometry x="462.5" y="660" width="160" height="120" as="geometry" />
        </mxCell>
        <mxCell id="ra9y6oQOf7fL091lrW0G-23" value="value&lt;div&gt;valueType&lt;/div&gt;&lt;div&gt;reason&lt;/div&gt;&lt;div&gt;reasonType&amp;nbsp;&lt;/div&gt;" style="align=left;strokeColor=none;fillColor=none;spacingLeft=4;spacingRight=4;fontSize=12;verticalAlign=top;resizable=0;rotatable=0;part=1;html=1;whiteSpace=wrap;" vertex="1" parent="ra9y6oQOf7fL091lrW0G-22">
          <mxGeometry y="50" width="160" height="70" as="geometry" />
        </mxCell>
        <mxCell id="ra9y6oQOf7fL091lrW0G-24" value="esempi di eccezioni:&lt;div&gt;- swap tra membri del team&lt;/div&gt;&lt;div&gt;- swap della macchina (?)&lt;/div&gt;&lt;div&gt;&lt;br&gt;&lt;/div&gt;&lt;div&gt;&lt;br&gt;&lt;/div&gt;&lt;div&gt;la rel con result è facoltativa e permette di aggiungere contesto all&#39;eccezione in base ad eventuali risultati precedenti (ad esempio il result è dnf perchè si sono fatti male quindi c&#39;è stato uno swap)&lt;/div&gt;" style="shape=note;size=20;whiteSpace=wrap;html=1;align=left;" vertex="1" parent="1">
          <mxGeometry x="610" y="790" width="340" height="140" as="geometry" />
        </mxCell>
        <mxCell id="ra9y6oQOf7fL091lrW0G-25" value="Il reason a facoltativo, ad esempio se il team non finisce la gara perchè si è piantato in un muro viene scritto nella reason con value DNF&lt;div&gt;&lt;br&gt;&lt;/div&gt;&lt;div&gt;value type serve per dare anche una categoria con valori uguali, ad esempio un DNF potrebbe essere che il team si è fatto male, che la macchina si è rotta o che semplicemente si sono piantati&lt;/div&gt;" style="shape=note;size=20;whiteSpace=wrap;html=1;" vertex="1" parent="1">
          <mxGeometry x="590" y="580" width="320" height="140" as="geometry" />
        </mxCell>
      </root>
    </mxGraphModel>
  </diagram>
</mxfile>
